<svg height="456pt" viewBox="0 -56 456.0164 456" width="456pt" xmlns="http://www.w3.org/2000/svg"><path d="m287.855469 202.488281 19.199219 25.664063h-56l-27.039063-36.144532h42.878906c8.242188.023438 16 3.898438 20.960938 10.480469zm0 0" fill="#1e76d2"/><path d="m146.355469 138.351562 136.003906-136 11.3125 11.3125-136.003906 136zm0 0" fill="#d32144"/><path d="m176.015625 64.007812c-17.671875 0-32-14.328124-32-32 0-17.671874 14.328125-31.9999995 32-31.9999995 17.675781 0 32 14.3281255 32 31.9999995 0 17.671876-14.324219 32-32 32zm0-48c-8.835937 0-16 7.164063-16 16 0 8.835938 7.164063 16 16 16s16-7.164062 16-16c0-8.835937-7.164063-16-16-16zm0 0" fill="#d32144"/><path d="m264.015625 152.007812c-17.671875 0-32-14.328124-32-32 0-17.671874 14.328125-32 32-32 17.675781 0 32 14.328126 32 32 0 17.671876-14.324219 32-32 32zm0-48c-8.835937 0-16 7.164063-16 16 0 8.835938 7.164063 16 16 16s16-7.164062 16-16c0-8.835937-7.164063-16-16-16zm0 0" fill="#d32144"/><path d="m456.015625 283.046875v12.960937c-.027344 8.824219-7.171875 15.972657-16 16h-73.039063c.363282-1.28125.605469-2.59375.71875-3.917968.121094-.554688.199219-1.117188.242188-1.683594.078125-.796875.078125-1.597656.078125-2.398438.011719-3.226562-.476563-6.4375-1.4375-9.519531-.574219-1.917969-1.351563-3.769531-2.320313-5.519531-1.410156-2.683594-3.21875-5.136719-5.363281-7.28125-.078125-.078125-.15625-.238281-.238281-.320312l1.359375-1.359376h95.839844c.082031 1.039063.160156 2 .160156 3.039063zm0 0" fill="#454545"/><path d="m312.015625 280.007812c-8.375 7.125-11.410156 18.726563-7.597656 29.039063 0 .160156 0 .242187.078125.320313.160156.882812.320312 1.761718.558594 2.640624h-81.039063v-49.359374c.003906-14.492188 5.757813-28.390626 16-38.640626h124.5625c24.417969.027344 48.140625 8.15625 67.4375 23.121094l11.519531 13.121094 10.402344 11.757812c.996094 2.570313 1.640625 5.257813 1.917969 8h-95.839844l-1.359375 1.359376c-.480469-.398438-.878906-.878907-1.359375-1.199219-5.1875-4.707031-11.8125-7.527344-18.800781-8-.527344-.09375-1.0625-.144531-1.601563-.160157h-.878906c-1.199219 0-2.320313.082032-3.4375.160157-7.523437.320312-14.738281 3.074219-20.5625 7.839843zm0 0" fill="#d32144"/><path d="m344.015625 304.007812c0 4.417969-3.582031 8-8 8s-8-3.582031-8-8c0-4.417968 3.582031-8 8-8s8 3.582032 8 8zm0 0" fill="#454545"/><path d="m160.015625 224.007812h80c-10.242187 10.25-15.996094 24.148438-16 38.640626v49.359374h-80v-49.359374c.003906-14.492188 5.757813-28.390626 16-38.640626zm0 0" fill="#a61a36"/><path d="m72.738281 224.007812h87.277344c-10.242187 10.25-15.996094 24.148438-16 38.640626v49.359374h-25.039063c.363282-1.28125.605469-2.59375.71875-3.917968.121094-.554688.199219-1.117188.242188-1.683594.078125-.796875.078125-1.597656.078125-2.398438.011719-3.226562-.476563-6.4375-1.4375-9.519531-.574219-1.917969-1.351563-3.769531-2.320313-5.519531-1.410156-2.683594-3.21875-5.136719-5.363281-7.28125-.492187-.546875-1.027343-1.054688-1.597656-1.519531-5.1875-4.707031-11.8125-7.527344-18.800781-8-.527344-.09375-1.0625-.144531-1.601563-.160157h-.878906c-.910156-.027343-1.820313.027344-2.71875.160157-15.613281 1.28125-27.96875 13.738281-29.121094 29.359375-.132812.820312-.1875 1.652344-.160156 2.480468 0 .800782 0 1.601563.082031 2.398438.039063.566406.121094 1.128906.238282 1.683594.117187 1.324218.359374 2.636718.71875 3.917968h-41.039063c-4.394531-.058593-8.574219-1.894531-11.589844-5.089843-3.015625-3.199219-4.605469-7.480469-4.410156-11.871094v-16.160156c-.0039062-14.027344 7.929687-26.851563 20.480469-33.117188l35.679687-17.839843c5.144531-2.566407 10.8125-3.90625 16.5625-3.921876zm0 0" fill="#d32144"/><path d="m96.015625 304.007812c0 4.417969-3.582031 8-8 8s-8-3.582031-8-8c0-4.417968 3.582031-8 8-8s8 3.582032 8 8zm0 0" fill="#454545"/><path d="m445.3125 270.007812-10.59375-12c.851562-.710937 1.617188-1.515624 2.28125-2.398437 2.105469-2.585937 3.0625-5.917969 2.65625-9.226563-.40625-3.308593-2.148438-6.304687-4.816406-8.300781l10.351562-12.210937c12.027344 9.5625 14.132813 27.011718 4.730469 39.160156-1.339844 1.832031-2.886719 3.503906-4.609375 4.976562zm0 0" fill="#f9b544"/><path d="m390.007812 270.097656-10.398437-12.175781c3.105469-2.351563 4.933594-6.019531 4.933594-9.914063 0-3.894531-1.828125-7.5625-4.933594-9.910156l10.398437-12.175781c6.675782 5.386719 10.554688 13.507813 10.554688 22.085937 0 8.578126-3.878906 16.699219-10.554688 22.089844zm0 0" fill="#f9b544"/><g fill="#a61a36"><path d="m24.015625 272.007812h40v16h-40zm0 0"/><path d="m456.015625 288.007812h-96v-16h95.839844zm0 0"/><path d="m248.015625 272.007812h64v16h-64zm0 0"/><path d="m112.015625 272.007812h24v16h-24zm0 0"/><path d="m256.015625 240.007812h24v16h-24zm0 0"/></g><path d="m168.015625 272.007812h32v16h-32zm0 0" fill="#d32144"/><path d="m72.015625 192.007812h48v16h-48zm0 0" fill="#454545"/><path d="m88.015625 344.007812c-22.089844 0-40-17.910156-40-40 0-22.089843 17.910156-40 40-40 22.09375 0 40 17.910157 40 40-.027344 22.082032-17.917969 39.972657-40 40zm0-64c-13.253906 0-24 10.746094-24 24 0 13.253907 10.746094 24 24 24s24-10.746093 24-24c0-13.253906-10.746094-24-24-24zm0 0" fill="#454545"/><path d="m336.015625 344.007812c-22.089844 0-40-17.910156-40-40 0-22.089843 17.910156-40 40-40 22.09375 0 40 17.910157 40 40-.027344 22.082032-17.917969 39.972657-40 40zm0-64c-13.253906 0-24 10.746094-24 24 0 13.253907 10.746094 24 24 24s24-10.746093 24-24c0-13.253906-10.746094-24-24-24zm0 0" fill="#454545"/></svg>